<?xml version="1.0" encoding="utf-8"?>
<svg xmlns="http://www.w3.org/2000/svg" viewBox="0 0 207 53" width="207px" height="53px">
  <defs>
    <clipPath id="clip0_284_8426">
      <rect width="231.264" height="54" fill="white" transform="translate(0.867676)"/>
    </clipPath>
    <clipPath id="clip1_284_8426">
      <rect width="214.042" height="55" fill="white" transform="translate(1)"/>
    </clipPath>
  </defs>
  <g clip-path="url(#clip0_284_8426)" transform="matrix(0.96677, 0, 0, 0.96677, -0.966766, 0)">
    <g clip-path="url(#clip1_284_8426)">
      <mask id="mask0_284_8426" style="mask-type:luminance" maskUnits="userSpaceOnUse" x="1" y="0" width="215" height="55">
        <path d="M215.042 0H1V55H215.042V0Z" fill="white"/>
      </mask>
      <g mask="url(#mask0_284_8426)">
        <path d="M63.936 49.3049V41.9736H66.5459C67.1132 41.9736 67.5839 42.0714 67.9581 42.2671C68.3347 42.4628 68.616 42.7337 68.8019 43.0797C68.9877 43.4234 69.0807 43.8207 69.0807 44.2717C69.0807 44.7204 68.9866 45.1154 68.7983 45.4567C68.6124 45.7955 68.3312 46.0592 67.9546 46.2478C67.5803 46.4363 67.1096 46.5306 66.5423 46.5306H64.5653V45.5784H66.4423C66.7998 45.5784 67.0905 45.5271 67.3146 45.4245C67.541 45.3218 67.7066 45.1726 67.8115 44.977C67.9164 44.7813 67.9689 44.5462 67.9689 44.2717C67.9689 43.9949 67.9152 43.7551 67.8079 43.5522C67.7031 43.3494 67.5374 43.1943 67.311 43.0868C67.087 42.977 66.7926 42.9222 66.428 42.9222H65.0408V49.3049H63.936ZM67.5505 45.9972L69.3596 49.3049H68.1011L66.3278 45.9972H67.5505Z" fill="#5AB1E0"/>
        <path d="M70.7065 49.3049V41.9736H75.2971V42.9258H71.8113V45.1595H75.0573V46.1082H71.8113V48.3527H75.3397V49.3049H70.7065Z" fill="#5AB1E0"/>
        <path d="M81.0482 43.8995C81.01 43.5606 80.8531 43.298 80.5765 43.1119C80.3 42.9234 79.9516 42.8291 79.532 42.8291C79.232 42.8291 78.9723 42.8769 78.753 42.9723C78.5337 43.0654 78.3635 43.1943 78.2417 43.3589C78.1222 43.5212 78.0627 43.7061 78.0627 43.9138C78.0627 44.088 78.1038 44.2384 78.1845 44.3648C78.2681 44.4913 78.3767 44.5975 78.5102 44.6835C78.6459 44.767 78.7911 44.8374 78.9459 44.8947C79.1007 44.9496 79.2496 44.9949 79.3926 45.0307L80.1078 45.2168C80.3418 45.2741 80.5809 45.3517 80.8267 45.4495C81.0724 45.5474 81.2998 45.6762 81.5096 45.8361C81.7193 45.996 81.8881 46.1941 82.0172 46.4304C82.1485 46.6667 82.2137 46.9495 82.2137 47.2788C82.2137 47.694 82.1066 48.0627 81.8917 48.385C81.6797 48.7071 81.3709 48.9613 80.966 49.1474C80.5633 49.3336 80.0755 49.4267 79.5034 49.4267C78.9554 49.4267 78.4816 49.3395 78.0811 49.1653C77.6806 48.9911 77.3666 48.7441 77.1407 48.4243C76.914 48.1021 76.7886 47.7203 76.7651 47.2788H77.8735C77.8948 47.5437 77.9806 47.7644 78.131 47.9411C78.2835 48.1152 78.4779 48.2453 78.7134 48.3313C78.9518 48.4148 79.2129 48.4565 79.4968 48.4565C79.8085 48.4565 80.0865 48.4076 80.3293 48.3098C80.5751 48.2095 80.768 48.0711 80.9088 47.8945C81.0496 47.7155 81.1201 47.5067 81.1201 47.268C81.1201 47.0509 81.0577 46.8731 80.9337 46.7347C80.812 46.5962 80.6469 46.4817 80.4371 46.391C80.2296 46.3003 79.9948 46.2204 79.7322 46.1511L78.8674 45.9149C78.2813 45.755 77.8163 45.5199 77.473 45.2097C77.1319 44.8994 76.9617 44.489 76.9617 43.9782C76.9617 43.5558 77.0761 43.1871 77.305 42.872C77.5339 42.5571 77.8434 42.3124 78.2344 42.1382C78.6254 41.9616 79.0662 41.8733 79.5577 41.8733C80.0528 41.8733 80.4907 41.9604 80.8692 42.1347C81.2506 42.3089 81.5514 42.5487 81.7707 42.8542C81.99 43.1572 82.1044 43.5057 82.114 43.8995H81.0482Z" fill="#5AB1E0"/>
        <path d="M83.8159 49.3049V41.9736H88.4063V42.9258H84.9206V45.1595H88.1672V46.1082H84.9206V48.3527H88.4496V49.3049H83.8159Z" fill="#5AB1E0"/>
        <path d="M90.782 49.3049H89.6099L92.2447 41.9736H93.521L96.1558 49.3049H94.9829L92.9129 43.3052H92.8557L90.782 49.3049ZM90.9794 46.434H94.7827V47.3647H90.9794V46.434Z" fill="#5AB1E0"/>
        <path d="M97.4951 49.3049V41.9736H100.105C100.672 41.9736 101.143 42.0714 101.517 42.2671C101.894 42.4628 102.175 42.7337 102.361 43.0797C102.547 43.4234 102.64 43.8207 102.64 44.2717C102.64 44.7204 102.545 45.1154 102.358 45.4567C102.171 45.7955 101.89 46.0592 101.513 46.2478C101.139 46.4363 100.668 46.5306 100.101 46.5306H98.1245V45.5784H100.002C100.359 45.5784 100.649 45.5271 100.874 45.4245C101.1 45.3218 101.265 45.1726 101.37 44.977C101.475 44.7813 101.528 44.5462 101.528 44.2717C101.528 43.9949 101.474 43.7551 101.367 43.5522C101.262 43.3494 101.097 43.1943 100.87 43.0868C100.646 42.977 100.351 42.9222 99.9869 42.9222H98.5998V49.3049H97.4951ZM101.109 45.9972L102.919 49.3049H101.66L99.8871 45.9972H101.109Z" fill="#5AB1E0"/>
        <path d="M110.347 44.3577H109.232C109.189 44.119 109.109 43.9091 108.993 43.7276C108.876 43.5463 108.733 43.3923 108.563 43.2658C108.394 43.1393 108.205 43.0439 107.995 42.9795C107.787 42.915 107.567 42.8828 107.333 42.8828C106.912 42.8828 106.534 42.989 106.2 43.2014C105.869 43.4138 105.607 43.7253 105.414 44.1357C105.223 44.5462 105.128 45.0474 105.128 45.6393C105.128 46.2358 105.223 46.7394 105.414 47.1499C105.607 47.5604 105.87 47.8707 106.204 48.0807C106.537 48.2906 106.913 48.3957 107.33 48.3957C107.561 48.3957 107.781 48.3646 107.988 48.3026C108.197 48.2381 108.387 48.1439 108.556 48.0198C108.726 47.8957 108.869 47.7442 108.985 47.5652C109.105 47.3838 109.187 47.1762 109.232 46.9423L110.347 46.9459C110.288 47.3062 110.172 47.638 110 47.9411C109.832 48.2417 109.613 48.5018 109.346 48.7214C109.082 48.9386 108.779 49.1068 108.438 49.2262C108.098 49.3455 107.726 49.4052 107.323 49.4052C106.689 49.4052 106.124 49.2548 105.628 48.9541C105.133 48.651 104.742 48.2179 104.456 47.6546C104.172 47.0914 104.03 46.4196 104.03 45.6393C104.03 44.8564 104.173 44.1846 104.459 43.6239C104.745 43.0606 105.136 42.6287 105.632 42.328C106.127 42.0249 106.691 41.8733 107.323 41.8733C107.711 41.8733 108.073 41.9294 108.409 42.0415C108.748 42.1513 109.052 42.3136 109.321 42.5284C109.59 42.7409 109.813 43.001 109.99 43.3088C110.166 43.6143 110.286 43.9639 110.347 44.3577Z" fill="#5AB1E0"/>
        <path d="M111.952 49.3049V41.9736H113.056V45.1595H116.706V41.9736H117.815V49.3049H116.706V46.1082H113.056V49.3049H111.952Z" fill="#5AB1E0"/>
        <path d="M123.27 49.3049H122.098L124.732 41.9736H126.009L128.644 49.3049H127.471L125.401 43.3052H125.343L123.27 49.3049ZM123.466 46.434H127.27V47.3647H123.466V46.434Z" fill="#5AB1E0"/>
        <path d="M135.892 41.9736V49.3049H134.877L131.155 43.9281H131.088V49.3049H129.983V41.9736H131.005L134.73 47.3575H134.798V41.9736H135.892Z" fill="#5AB1E0"/>
        <path d="M140.156 49.3049H137.786V41.9736H140.232C140.949 41.9736 141.565 42.1203 142.079 42.4138C142.594 42.705 142.989 43.1239 143.263 43.6703C143.54 44.2145 143.678 44.8672 143.678 45.6285C143.678 46.3922 143.538 47.0484 143.26 47.5973C142.983 48.1462 142.583 48.5687 142.058 48.8646C141.534 49.1582 140.9 49.3049 140.156 49.3049ZM138.891 48.3384H140.095C140.653 48.3384 141.117 48.2334 141.486 48.0233C141.856 47.811 142.132 47.5043 142.316 47.1034C142.499 46.7 142.591 46.2084 142.591 45.6285C142.591 45.0533 142.499 44.5653 142.316 44.1644C142.134 43.7634 141.864 43.4591 141.504 43.2515C141.144 43.0439 140.697 42.9401 140.163 42.9401H138.891V48.3384Z" fill="#5AB1E0"/>
        <path d="M154.361 44.3577H153.246C153.202 44.119 153.123 43.9091 153.006 43.7276C152.889 43.5463 152.746 43.3923 152.577 43.2658C152.408 43.1393 152.218 43.0439 152.008 42.9795C151.801 42.915 151.58 42.8828 151.347 42.8828C150.925 42.8828 150.548 42.989 150.214 43.2014C149.882 43.4138 149.621 43.7253 149.427 44.1357C149.236 44.5462 149.142 45.0474 149.142 45.6393C149.142 46.2358 149.236 46.7394 149.427 47.1499C149.621 47.5604 149.884 47.8707 150.218 48.0807C150.551 48.2906 150.926 48.3957 151.344 48.3957C151.575 48.3957 151.794 48.3646 152.002 48.3026C152.211 48.2381 152.401 48.1439 152.57 48.0198C152.739 47.8957 152.882 47.7442 152.999 47.5652C153.118 47.3838 153.2 47.1762 153.246 46.9423L154.361 46.9459C154.301 47.3062 154.186 47.638 154.014 47.9411C153.845 48.2417 153.627 48.5018 153.36 48.7214C153.095 48.9386 152.792 49.1068 152.452 49.2262C152.111 49.3455 151.739 49.4052 151.336 49.4052C150.702 49.4052 150.138 49.2548 149.642 48.9541C149.146 48.651 148.755 48.2179 148.469 47.6546C148.186 47.0914 148.043 46.4196 148.043 45.6393C148.043 44.8564 148.186 44.1846 148.473 43.6239C148.759 43.0606 149.15 42.6287 149.645 42.328C150.141 42.0249 150.705 41.8733 151.336 41.8733C151.725 41.8733 152.087 41.9294 152.423 42.0415C152.761 42.1513 153.066 42.3136 153.335 42.5284C153.604 42.7409 153.827 43.001 154.003 43.3088C154.18 43.6143 154.299 43.9639 154.361 44.3577Z" fill="#5AB1E0"/>
        <path d="M162.325 45.6393C162.325 46.422 162.182 47.095 161.896 47.6582C161.61 48.2191 161.218 48.651 160.719 48.9541C160.224 49.2548 159.66 49.4052 159.029 49.4052C158.395 49.4052 157.829 49.2548 157.331 48.9541C156.835 48.651 156.444 48.2179 156.158 47.6546C155.872 47.0914 155.729 46.4196 155.729 45.6393C155.729 44.8564 155.872 44.1846 156.158 43.6239C156.444 43.0606 156.835 42.6287 157.331 42.328C157.829 42.0249 158.395 41.8733 159.029 41.8733C159.66 41.8733 160.224 42.0249 160.719 42.328C161.218 42.6287 161.61 43.0606 161.896 43.6239C162.182 44.1846 162.325 44.8564 162.325 45.6393ZM161.231 45.6393C161.231 45.0426 161.135 44.5402 160.942 44.1321C160.751 43.7217 160.488 43.4114 160.155 43.2014C159.824 42.989 159.448 42.8828 159.029 42.8828C158.607 42.8828 158.23 42.989 157.899 43.2014C157.567 43.4114 157.306 43.7217 157.113 44.1321C156.922 44.5402 156.827 45.0426 156.827 45.6393C156.827 46.2358 156.922 46.7394 157.113 47.1499C157.306 47.558 157.567 47.8682 157.899 48.0807C158.23 48.2906 158.607 48.3957 159.029 48.3957C159.448 48.3957 159.824 48.2906 160.155 48.0807C160.488 47.8682 160.751 47.558 160.942 47.1499C161.135 46.7394 161.231 46.2358 161.231 45.6393Z" fill="#5AB1E0"/>
        <path d="M169.894 41.9736V49.3049H168.878L165.157 43.9281H165.089V49.3049H163.984V41.9736H165.007L168.732 47.3575H168.8V41.9736H169.894Z" fill="#5AB1E0"/>
        <path d="M175.781 43.8995C175.743 43.5606 175.586 43.298 175.309 43.1119C175.033 42.9234 174.684 42.8291 174.265 42.8291C173.965 42.8291 173.705 42.8769 173.486 42.9723C173.267 43.0654 173.096 43.1943 172.975 43.3589C172.855 43.5212 172.796 43.7061 172.796 43.9138C172.796 44.088 172.836 44.2384 172.917 44.3648C173.001 44.4913 173.11 44.5975 173.243 44.6835C173.379 44.767 173.524 44.8374 173.679 44.8947C173.834 44.9496 173.982 44.9949 174.126 45.0307L174.841 45.2168C175.075 45.2741 175.314 45.3517 175.56 45.4495C175.805 45.5474 176.033 45.6762 176.242 45.8361C176.452 45.996 176.621 46.1941 176.75 46.4304C176.881 46.6667 176.947 46.9495 176.947 47.2788C176.947 47.694 176.84 48.0627 176.625 48.385C176.413 48.7071 176.104 48.9613 175.699 49.1474C175.296 49.3336 174.808 49.4267 174.236 49.4267C173.688 49.4267 173.215 49.3395 172.814 49.1653C172.413 48.9911 172.1 48.7441 171.874 48.4243C171.647 48.1021 171.522 47.7203 171.498 47.2788H172.606C172.628 47.5437 172.714 47.7644 172.864 47.9411C173.016 48.1152 173.211 48.2453 173.446 48.3313C173.685 48.4148 173.946 48.4565 174.23 48.4565C174.541 48.4565 174.819 48.4076 175.062 48.3098C175.308 48.2095 175.501 48.0711 175.642 47.8945C175.783 47.7155 175.853 47.5067 175.853 47.268C175.853 47.0509 175.791 46.8731 175.667 46.7347C175.545 46.5962 175.38 46.4817 175.17 46.391C174.962 46.3003 174.728 46.2204 174.465 46.1511L173.6 45.9149C173.014 45.755 172.549 45.5199 172.206 45.2097C171.865 44.8994 171.695 44.489 171.695 43.9782C171.695 43.5558 171.809 43.1871 172.038 42.872C172.267 42.5571 172.576 42.3124 172.967 42.1382C173.358 41.9616 173.799 41.8733 174.291 41.8733C174.786 41.8733 175.224 41.9604 175.602 42.1347C175.984 42.3089 176.284 42.5487 176.504 42.8542C176.723 43.1572 176.837 43.5057 176.846 43.8995H175.781Z" fill="#5AB1E0"/>
        <path d="M183.257 41.9736H184.366V46.7955C184.366 47.3086 184.245 47.7632 184.005 48.1594C183.764 48.5532 183.425 48.8634 182.99 49.0901C182.553 49.3144 182.042 49.4266 181.456 49.4266C180.871 49.4266 180.361 49.3144 179.925 49.0901C179.489 48.8634 179.15 48.5532 178.91 48.1594C178.669 47.7632 178.549 47.3086 178.549 46.7955V41.9736H179.654V46.706C179.654 47.0377 179.726 47.3325 179.871 47.5902C180.02 47.848 180.228 48.0508 180.497 48.1987C180.766 48.3444 181.086 48.4171 181.456 48.4171C181.827 48.4171 182.147 48.3444 182.417 48.1987C182.689 48.0508 182.896 47.848 183.039 47.5902C183.185 47.3325 183.257 47.0377 183.257 46.706V41.9736Z" fill="#5AB1E0"/>
        <path d="M186.253 49.3049V41.9736H187.358V48.3527H190.676V49.3049H186.253Z" fill="#5AB1E0"/>
        <path d="M190.903 42.9258V41.9736H196.57V42.9258H194.286V49.3049H193.185V42.9258H190.903Z" fill="#5AB1E0"/>
        <path d="M199.209 41.9736V49.3049H198.104V41.9736H199.209Z" fill="#5AB1E0"/>
        <path d="M207.009 41.9736V49.3049H205.994L202.272 43.9281H202.204V49.3049H201.099V41.9736H202.122L205.847 47.3575H205.915V41.9736H207.009Z" fill="#5AB1E0"/>
        <path d="M213.858 44.2897C213.788 44.0725 213.696 43.878 213.579 43.7061C213.465 43.532 213.328 43.384 213.168 43.2623C213.008 43.1382 212.826 43.0439 212.621 42.9795C212.418 42.915 212.195 42.8828 211.952 42.8828C211.54 42.8828 211.168 42.989 210.837 43.2014C210.506 43.4138 210.243 43.7253 210.05 44.1357C209.86 44.5438 209.764 45.0438 209.764 45.6357C209.764 46.2299 209.861 46.7322 210.054 47.1428C210.247 47.5532 210.512 47.8647 210.848 48.0771C211.184 48.2895 211.566 48.3957 211.995 48.3957C212.393 48.3957 212.74 48.3146 213.036 48.1523C213.334 47.99 213.563 47.7609 213.725 47.4649C213.89 47.1666 213.973 46.8158 213.973 46.4125L214.259 46.4662H212.163V45.5533H215.041V46.3874C215.041 47.0031 214.91 47.5377 214.648 47.9912C214.388 48.4422 214.028 48.7906 213.568 49.0364C213.111 49.2823 212.586 49.4052 211.995 49.4052C211.333 49.4052 210.751 49.2524 210.251 48.947C209.753 48.6415 209.364 48.2084 209.085 47.6475C208.806 47.0843 208.667 46.416 208.667 45.6428C208.667 45.0581 208.748 44.5331 208.91 44.0677C209.072 43.6024 209.299 43.2074 209.593 42.8828C209.888 42.5558 210.235 42.3065 210.633 42.1347C211.033 41.9604 211.471 41.8733 211.945 41.8733C212.341 41.8733 212.709 41.9318 213.05 42.0487C213.393 42.1657 213.698 42.3315 213.965 42.5463C214.234 42.7611 214.457 43.0164 214.633 43.3124C214.81 43.606 214.929 43.9317 214.991 44.2897H213.858Z" fill="#5AB1E0"/>
        <mask id="mask1_284_8426" style="mask-type:luminance" maskUnits="userSpaceOnUse" x="63" y="5" width="153" height="30">
          <path d="M215.042 5.57333H63.936V34.9067H215.042V5.57333Z" fill="white"/>
        </mask>
        <g mask="url(#mask1_284_8426)">
          <path d="M63.936 34.9067V5.57333H70.003V19.2556C70.7253 18.3894 71.4475 17.5232 72.1698 16.657C72.892 15.7908 73.6209 14.918 74.3564 14.0386L81.6051 5.57333H88.8736L77.8825 18.2516L89.1692 34.9067H82.1765L73.8835 22.3268L70.003 26.8351V34.9067H63.936Z" fill="#163272"/>
          <path d="M97.4575 34.9067L107.753 5.57335H115.549L125.845 34.9067H119.132L117.084 28.5085H106.12L103.993 34.9067H97.4575ZM107.753 23.6655H115.509L114.525 20.6337C114.066 19.1375 113.607 17.6151 113.148 16.0664C112.688 14.5177 112.196 12.8312 111.671 11.0069C111.146 12.8312 110.647 14.5177 110.175 16.0664C109.702 17.6151 109.23 19.1375 108.757 20.6337L107.753 23.6655Z" fill="#163272"/>
          <path d="M142.349 5.57335V34.9067H136.261V5.57335H142.349Z" fill="#163272"/>
          <path d="M165.479 34.9067C161.842 34.9067 159.006 34.0484 156.972 32.3319C154.95 30.6154 153.939 28.2123 153.939 25.1225H159.604C159.642 26.6865 160.183 27.9071 161.225 28.7844C162.268 29.649 163.698 30.0813 165.517 30.0813C167.145 30.0813 168.455 29.7508 169.446 29.0896C170.438 28.4284 170.934 27.5447 170.934 26.4385C170.934 25.5231 170.533 24.7793 169.732 24.2071C168.944 23.6349 167.647 23.1517 165.841 22.7575L162.847 22.1091C157.277 20.9012 154.492 18.2692 154.492 14.2131C154.492 12.4839 154.944 10.9772 155.846 9.693C156.749 8.3961 158.008 7.3852 159.623 6.66047C161.238 5.93573 163.126 5.57335 165.288 5.57335C168.556 5.57335 171.144 6.38711 173.051 8.01462C174.971 9.6421 175.976 11.8863 176.065 14.7472H170.572C170.47 13.3994 169.948 12.3377 169.008 11.562C168.067 10.7865 166.833 10.3987 165.307 10.3987C163.858 10.3987 162.669 10.7293 161.74 11.3904C160.825 12.0516 160.367 12.8971 160.367 13.927C160.367 14.8044 160.748 15.5101 161.511 16.0441C162.274 16.5781 163.527 17.0359 165.269 17.4173L167.996 18.0086C171.023 18.657 173.236 19.6297 174.635 20.9266C176.046 22.2108 176.751 23.921 176.751 26.0571C176.751 28.7908 175.747 30.9523 173.737 32.5417C171.728 34.1183 168.975 34.9067 165.479 34.9067Z" fill="#163272"/>
          <path d="M201.719 34.9067C199.178 34.9067 196.897 34.3155 194.878 33.133C192.858 31.9378 191.263 30.2466 190.094 28.0597C188.926 25.86 188.341 23.2598 188.341 20.2591C188.341 17.2329 188.926 14.6263 190.094 12.4394C191.263 10.2397 192.858 8.54863 194.878 7.36613C196.897 6.17095 199.178 5.57335 201.719 5.57335C204.272 5.57335 206.552 6.17095 208.559 7.36613C210.579 8.54863 212.174 10.2397 213.343 12.4394C214.524 14.6263 215.115 17.2329 215.115 20.2591C215.115 23.2725 214.524 25.8727 213.343 28.0597C212.174 30.2466 210.579 31.9378 208.559 33.133C206.552 34.3155 204.272 34.9067 201.719 34.9067ZM201.719 29.719C203.916 29.719 205.714 28.8988 207.111 27.2587C208.509 25.6057 209.208 23.2725 209.208 20.2591C209.208 17.2329 208.509 14.8934 207.111 13.2404C205.714 11.5875 203.916 10.761 201.719 10.761C199.533 10.761 197.742 11.5875 196.345 13.2404C194.947 14.8934 194.248 17.2329 194.248 20.2591C194.248 23.2725 194.947 25.6057 196.345 27.2587C197.742 28.8988 199.533 29.719 201.719 29.719Z" fill="#163272"/>
        </g>
        <mask id="mask2_284_8426" style="mask-type:luminance" maskUnits="userSpaceOnUse" x="1" y="0" width="56" height="55">
          <path d="M56.0141 0H1V55H56.0141V0Z" fill="white"/>
        </mask>
        <g mask="url(#mask2_284_8426)">
          <path d="M50.9553 0H6.05877C3.26485 0 1 2.26427 1 5.05747V49.9425C1 52.7357 3.26485 55 6.05877 55H50.9553C53.7492 55 56.0141 52.7357 56.0141 49.9425V5.05747C56.0141 2.26427 53.7492 0 50.9553 0ZM53.4847 49.9425C53.4847 51.3385 52.3517 52.4712 50.9553 52.4712H6.05877C4.66234 52.4712 3.52939 51.3385 3.52939 49.9425V5.05747C3.52939 3.66139 4.66234 2.52874 6.05877 2.52874H50.9553C52.3517 2.52874 53.4847 3.66139 53.4847 5.05747V49.9425Z" fill="#163272"/>
          <path d="M22.2892 47.8386C22.2892 49.0025 21.3456 49.9426 20.1814 49.9426H10.6962C9.53213 49.9426 8.58838 49.0025 8.58838 47.8386C8.58838 39.855 8.58838 14.5933 8.58838 7.14425C8.58838 5.98043 9.53213 5.05753 10.6962 5.05753H20.1814C21.3456 5.05753 22.2892 5.98043 22.2892 7.14425C22.2892 14.5933 22.2892 39.855 22.2892 47.8386Z" fill="#163272"/>
          <path d="M33.882 21.9157C38.5385 21.9157 42.3132 18.1419 42.3132 13.4866C42.3132 8.83132 38.5385 5.05753 33.882 5.05753C29.2255 5.05753 25.4507 8.83132 25.4507 13.4866C25.4507 18.1419 29.2255 21.9157 33.882 21.9157Z" fill="#D62035"/>
          <path d="M48.5312 49.9425H27.0014C26.0864 49.9425 25.3452 49.2016 25.3452 48.2869V26.7624C38.1506 26.7624 48.5312 37.1405 48.5312 49.9425Z" fill="#5AB1E0"/>
        </g>
      </g>
    </g>
  </g>
</svg>