<svg xmlns="http://www.w3.org/2000/svg" width="20" height="20" viewBox="0 0 20 20" fill="none">
<path d="M17.8318 4.06971L14.3608 0.598638C14.1214 0.359253 13.882 0.359253 13.6426 0.359253H4.54598C3.94752 0.359253 3.58844 0.838022 3.58844 1.31679V9.69525H3.94752V16.398H3.46875V18.9116C3.46875 19.51 3.94752 19.8691 4.42629 19.8691H17.1137C17.7121 19.8691 18.0712 19.3903 18.0712 18.9116V4.66818C18.0712 4.42879 18.0712 4.18941 17.8318 4.06971Z" fill="#DCDFE1"/>
<path d="M14.4804 10.0543H3.46875V16.7571H14.3608C14.7198 16.7571 14.9592 16.5177 14.9592 16.1586V10.6528C15.0789 10.2937 14.7198 10.0543 14.4804 10.0543Z" fill="#C4CBD2"/>
<path d="M1.91406 15.6799C1.91406 16.0389 2.15345 16.2783 2.51252 16.2783H14.003C14.3621 16.2783 14.6014 16.0389 14.6014 15.6799V10.174C14.6014 9.81495 14.3621 9.57556 14.003 9.57556H2.51252C2.15345 9.57556 1.91406 9.81495 1.91406 10.174V15.6799Z" fill="#EA5440"/>
<path d="M5.26554 10.7725H3.94892C3.82923 10.7725 3.58984 10.8922 3.58984 11.1315V13.286V14.7223C3.58984 14.842 3.70954 15.0814 3.94892 15.0814C4.06861 15.0814 4.308 14.9617 4.308 14.7223V13.6451H5.26554C5.74431 13.6451 6.22307 13.1663 6.22307 12.6875V11.73C6.22307 11.2512 5.74431 10.7725 5.26554 10.7725ZM5.50492 12.6875C5.50492 12.8072 5.38523 12.9269 5.26554 12.9269H4.308V11.4906H5.26554C5.38523 11.4906 5.50492 11.6103 5.50492 11.73V12.6875Z" fill="white"/>
<path d="M8.49741 15.0814H7.30048C7.18079 15.0814 6.94141 14.9617 6.94141 14.7223V11.1315C6.94141 11.0118 7.0611 10.7725 7.30048 10.7725H8.49741C9.09587 10.7725 9.45494 11.2512 9.45494 11.73V14.0042C9.45494 14.6026 8.97618 15.0814 8.49741 15.0814ZM7.53987 14.3632H8.37771C8.6171 14.3632 8.73679 14.2435 8.73679 14.0042V11.73C8.73679 11.4906 8.6171 11.3709 8.37771 11.3709H7.53987V14.3632Z" fill="white"/>
<path d="M12.5671 10.7725H10.652C10.5324 10.7725 10.293 10.8922 10.293 11.1315V14.7223C10.293 14.842 10.4127 15.0814 10.652 15.0814C10.7717 15.0814 11.0111 14.9617 11.0111 14.7223V13.286H11.9687C12.0884 13.286 12.3277 13.1663 12.3277 12.9269C12.3277 12.8072 12.208 12.5678 11.9687 12.5678H10.8914V11.3709H12.5671C12.6868 11.3709 12.9262 11.2512 12.9262 11.0118C12.9262 10.7725 12.6868 10.7725 12.5671 10.7725Z" fill="white"/>
<path d="M14.125 4.30908L18.0748 8.25893V4.54847L14.125 4.30908Z" fill="#C4CBD2"/>
<path d="M17.8327 4.06971L14.3616 0.598638C14.2419 0.478945 14.0025 0.359253 13.8828 0.359253V3.71064C13.8828 4.18941 14.2419 4.66818 14.8403 4.66818H18.1917C18.072 4.3091 17.9523 4.18941 17.8327 4.06971Z" fill="#ABB2B8"/>
</svg>