<svg xmlns="http://www.w3.org/2000/svg" width="20" height="20" viewBox="0 0 20 20" fill="none">
<path d="M17.8318 4.06971L14.3608 0.598638C14.1214 0.359253 13.882 0.359253 13.6426 0.359253H4.54598C3.94752 0.359253 3.58844 0.838022 3.58844 1.31679V9.69525H3.94752V16.398H3.46875V18.9116C3.46875 19.51 3.94752 19.8691 4.42629 19.8691H17.1137C17.7121 19.8691 18.0712 19.3903 18.0712 18.9116V4.66818C18.0712 4.42879 18.0712 4.18941 17.8318 4.06971Z" fill="#DCDFE1"/>
<path d="M14.4804 10.0543H3.46875V16.7571H14.3608C14.7198 16.7571 14.9592 16.5177 14.9592 16.1586V10.6528C15.0789 10.2937 14.7198 10.0543 14.4804 10.0543Z" fill="#C4CBD2"/>
<path d="M1.91406 15.6799C1.91406 16.0389 2.15345 16.2783 2.51252 16.2783H14.003C14.3621 16.2783 14.6014 16.0389 14.6014 15.6799V10.174C14.6014 9.81495 14.3621 9.57556 14.003 9.57556H2.51252C2.15345 9.57556 1.91406 9.81495 1.91406 10.174V15.6799Z" fill="#D66007"/>
<path d="M14.125 4.30908L18.0748 8.25893V4.54847L14.125 4.30908Z" fill="#C4CBD2"/>
<path d="M17.8327 4.06971L14.3616 0.598638C14.2419 0.478945 14.0025 0.359253 13.8828 0.359253V3.71064C13.8828 4.18941 14.2419 4.66818 14.8403 4.66818H18.1917C18.072 4.3091 17.9523 4.18941 17.8327 4.06971Z" fill="#ABB2B8"/>
<path d="M6.46386 12.4482C6.46386 13.1664 5.8654 13.6451 5.02755 13.6451H4.3094V14.6027H3.71094V11.2513H5.14725C5.98509 11.2513 6.46386 11.7301 6.46386 12.4482ZM5.8654 12.4482C5.8654 11.9694 5.62601 11.7301 5.02755 11.7301H4.3094V13.0467H5.02755C5.62601 13.1664 5.8654 12.927 5.8654 12.4482Z" fill="white"/>
<path d="M9.93652 12.4482C9.93652 13.1664 9.33806 13.6451 8.50021 13.6451H7.78206V14.6027H7.18359V11.2513H8.6199C9.45775 11.2513 9.93652 11.7301 9.93652 12.4482ZM9.33806 12.4482C9.33806 11.9694 9.09867 11.7301 8.50021 11.7301H7.78206V13.0467H8.50021C9.09867 13.1664 9.33806 12.927 9.33806 12.4482Z" fill="white"/>
<path d="M11.2516 11.8497H10.0547V11.2513H12.9273V11.7301H11.8501V14.6027H11.2516V11.8497Z" fill="white"/>
</svg>