<svg xmlns="http://www.w3.org/2000/svg" width="20" height="20" viewBox="0 0 20 20" fill="none">
<path d="M17.8318 4.06971L14.3608 0.598638C14.1214 0.359253 13.882 0.359253 13.6426 0.359253H4.54598C3.94752 0.359253 3.58844 0.838022 3.58844 1.31679V9.69525H3.94752V16.398H3.46875V18.9116C3.46875 19.51 3.94752 19.8691 4.42629 19.8691H17.1137C17.7121 19.8691 18.0712 19.3903 18.0712 18.9116V4.66818C18.0712 4.42879 18.0712 4.18941 17.8318 4.06971Z" fill="#DCDFE1"/>
<path d="M14.4804 10.0543H3.46875V16.7571H14.3608C14.7198 16.7571 14.9592 16.5177 14.9592 16.1586V10.6528C15.0789 10.2937 14.7198 10.0543 14.4804 10.0543Z" fill="#C4CBD2"/>
<path d="M1.91406 15.6799C1.91406 16.0389 2.15345 16.2783 2.51252 16.2783H14.003C14.3621 16.2783 14.6014 16.0389 14.6014 15.6799V10.174C14.6014 9.81495 14.3621 9.57556 14.003 9.57556H2.51252C2.15345 9.57556 1.91406 9.81495 1.91406 10.174V15.6799Z" fill="#2C9B3E"/>
<path d="M14.125 4.30908L18.0748 8.25893V4.54847L14.125 4.30908Z" fill="#C4CBD2"/>
<path d="M17.8327 4.06971L14.3616 0.598638C14.2419 0.478945 14.0025 0.359253 13.8828 0.359253V3.71064C13.8828 4.18941 14.2419 4.66818 14.8403 4.66818H18.1917C18.072 4.3091 17.9523 4.18941 17.8327 4.06971Z" fill="#ABB2B8"/>
<path d="M5.62461 14.483L4.90646 13.5255L4.18831 14.483H3.58984L4.54738 13.1664L3.58984 11.8498H4.308L4.90646 12.6876L5.50492 11.8498H6.10338L5.14584 13.1664L6.10338 14.483H5.62461Z" fill="white"/>
<path d="M6.70312 10.8922H7.30159V14.483H6.70312V10.8922Z" fill="white"/>
<path d="M7.78125 14.2436L8.02063 13.7648C8.26002 13.8845 8.6191 14.0042 8.97817 14.0042C9.33725 14.0042 9.57663 13.8845 9.57663 13.7648C9.57663 13.2861 8.02063 13.7648 8.02063 12.6876C8.02063 12.2088 8.4994 11.8498 9.21756 11.8498C9.57663 11.8498 9.93571 11.9695 10.1751 12.0891L9.81602 12.5679C9.57663 12.4482 9.33725 12.3285 9.09787 12.3285C8.73879 12.3285 8.4994 12.4482 8.4994 12.5679C8.4994 13.0467 10.0554 12.5679 10.0554 13.6451C10.0554 14.1239 9.57663 14.483 8.85848 14.483C8.4994 14.6027 8.02063 14.483 7.78125 14.2436Z" fill="white"/>
<path d="M12.2066 14.483L11.4885 13.5254L10.7703 14.483H10.1719L11.1294 13.1663L10.1719 11.8497H10.89L11.4885 12.6876L12.087 11.8497H12.6854L11.7279 13.1663L12.6854 14.483H12.2066Z" fill="white"/>
</svg>