<svg width="193" height="45" viewBox="0 0 193 45" fill="none" xmlns="http://www.w3.org/2000/svg">
<g clip-path="url(#clip0_384_8998)">
<path d="M51.8389 42.8349V35.9978H54.2722C54.8011 35.9978 55.24 36.089 55.5888 36.2716C55.9399 36.454 56.2022 36.7067 56.3755 37.0294C56.5488 37.3499 56.6355 37.7204 56.6355 38.141C56.6355 38.5595 56.5477 38.9278 56.3721 39.2461C56.1988 39.5621 55.9366 39.808 55.5855 39.9839C55.2366 40.1597 54.7978 40.2476 54.2688 40.2476H52.4255V39.3596H54.1756C54.5089 39.3596 54.78 39.3117 54.9888 39.2161C55.2 39.1203 55.3544 38.9812 55.4522 38.7987C55.55 38.6162 55.5989 38.397 55.5989 38.141C55.5989 37.8829 55.5489 37.6592 55.4488 37.47C55.3511 37.2808 55.1966 37.1362 54.9855 37.036C54.7766 36.9336 54.5022 36.8825 54.1622 36.8825H52.8689V42.8349H51.8389ZM55.2088 39.7502L56.8955 42.8349H55.7222L54.0689 39.7502H55.2088Z" fill="#163272"/>
<path d="M58.1516 42.8349V35.9978H62.4315V36.8858H59.1816V38.969H62.2082V39.8536H59.1816V41.9468H62.4716V42.8349H58.1516Z" fill="#163272"/>
<path d="M67.7935 37.7938C67.7579 37.4778 67.6112 37.233 67.3534 37.0594C67.0957 36.8836 66.7712 36.7957 66.3801 36.7957C66.1001 36.7957 65.8579 36.8402 65.6535 36.9292C65.4491 37.016 65.2901 37.1362 65.1768 37.2897C65.0657 37.4411 65.0102 37.6135 65.0102 37.8072C65.0102 37.9696 65.048 38.1099 65.1235 38.2278C65.2013 38.3458 65.3024 38.4448 65.4268 38.525C65.5535 38.6029 65.6891 38.6685 65.8335 38.7219C65.9779 38.7731 66.1168 38.8154 66.2501 38.8488L66.9168 39.0224C67.1346 39.0758 67.3579 39.1481 67.5868 39.2394C67.8157 39.3307 68.0279 39.4508 68.2234 39.5999C68.4191 39.7491 68.5764 39.9338 68.6968 40.1541C68.8192 40.3745 68.8801 40.6382 68.8801 40.9453C68.8801 41.3325 68.7802 41.6764 68.5799 41.9769C68.3823 42.2773 68.0946 42.5144 67.7168 42.6879C67.3413 42.8616 66.8868 42.9484 66.3535 42.9484C65.8424 42.9484 65.4002 42.8671 65.0268 42.7046C64.6535 42.5422 64.3613 42.3119 64.1502 42.0136C63.939 41.7131 63.8224 41.357 63.8002 40.9453H64.8335C64.8535 41.1923 64.9335 41.3982 65.0735 41.5629C65.2157 41.7254 65.3968 41.8467 65.6168 41.9268C65.839 42.0047 66.0824 42.0436 66.3468 42.0436C66.6379 42.0436 66.8968 41.998 67.1234 41.9068C67.3523 41.8133 67.5323 41.6842 67.6634 41.5195C67.7945 41.3526 67.8601 41.1579 67.8601 40.9353C67.8601 40.7328 67.8023 40.567 67.6868 40.4379C67.5734 40.3088 67.419 40.2019 67.2234 40.1174C67.0302 40.0328 66.8112 39.9583 66.5668 39.8937L65.7602 39.6734C65.2135 39.5243 64.7802 39.305 64.4602 39.0157C64.1424 38.7264 63.9835 38.3436 63.9835 37.8673C63.9835 37.4733 64.0902 37.1295 64.3035 36.8357C64.5169 36.542 64.8057 36.3138 65.1702 36.1513C65.5346 35.9866 65.9457 35.9043 66.4034 35.9043C66.8657 35.9043 67.2735 35.9855 67.6268 36.148C67.9823 36.3105 68.2623 36.5342 68.467 36.819C68.6715 37.1017 68.7782 37.4266 68.7871 37.7938H67.7935Z" fill="#163272"/>
<path d="M70.3737 42.8349V35.9978H74.6535V36.8858H71.4036V38.969H74.4305V39.8536H71.4036V41.9468H74.6938V42.8349H70.3737Z" fill="#163272"/>
<path d="M76.8686 42.8349H75.7758L78.2323 35.9978H79.4223L81.8788 42.8349H80.7853L78.8553 37.2397H78.802L76.8686 42.8349ZM77.0526 40.1575H80.5986V41.0254H77.0526V40.1575Z" fill="#163272"/>
<path d="M83.1276 42.8349V35.9978H85.5609C86.0895 35.9978 86.5286 36.089 86.8774 36.2716C87.2289 36.454 87.4908 36.7067 87.6638 37.0294C87.8375 37.3499 87.9244 37.7204 87.9244 38.141C87.9244 38.5595 87.8362 38.9278 87.6611 39.2461C87.4874 39.5621 87.2255 39.808 86.8739 39.9839C86.5252 40.1597 86.0861 40.2476 85.5574 40.2476H83.7144V39.3596H85.4644C85.7975 39.3596 86.0683 39.3117 86.2776 39.2161C86.4882 39.1203 86.6428 38.9812 86.7406 38.7987C86.8384 38.6162 86.8876 38.397 86.8876 38.141C86.8876 37.8829 86.8377 37.6592 86.7372 37.47C86.6394 37.2808 86.4855 37.1362 86.2742 37.036C86.0649 36.9336 85.7907 36.8825 85.4508 36.8825H84.1575V42.8349H83.1276ZM86.4971 39.7502L88.1843 42.8349H87.0107L85.3578 39.7502H86.4971Z" fill="#163272"/>
<path d="M95.11 38.2212H94.0698C94.0302 37.9986 93.9556 37.8028 93.8469 37.6336C93.7381 37.4645 93.6048 37.3209 93.4468 37.2029C93.2888 37.085 93.1124 36.996 92.9168 36.9359C92.7233 36.8758 92.5181 36.8457 92.2999 36.8457C91.9067 36.8457 91.5545 36.9448 91.2433 37.1428C90.9349 37.3409 90.69 37.6314 90.5102 38.0142C90.3324 38.397 90.2435 38.8644 90.2435 39.4163C90.2435 39.9727 90.3324 40.4423 90.5102 40.8252C90.69 41.2079 90.9356 41.4973 91.2467 41.6932C91.5579 41.889 91.9081 41.9869 92.2965 41.9869C92.5126 41.9869 92.7171 41.958 92.91 41.9001C93.1056 41.84 93.2827 41.7521 93.44 41.6364C93.598 41.5206 93.7313 41.3793 93.8401 41.2124C93.9515 41.0433 94.0281 40.8496 94.0698 40.6315L95.11 40.6348C95.0546 40.9709 94.9466 41.2803 94.7866 41.5629C94.6293 41.8433 94.4255 42.0859 94.1765 42.2907C93.9303 42.4932 93.6479 42.6501 93.3299 42.7614C93.0125 42.8727 92.6658 42.9283 92.2904 42.9283C91.6988 42.9283 91.1722 42.7881 90.7099 42.5077C90.2483 42.225 89.8837 41.8211 89.617 41.2958C89.3524 40.7706 89.2204 40.1441 89.2204 39.4163C89.2204 38.6863 89.3537 38.0598 89.6204 37.5368C89.8872 37.0115 90.251 36.6087 90.7133 36.3283C91.1756 36.0457 91.7015 35.9043 92.2904 35.9043C92.6521 35.9043 92.99 35.9566 93.3032 36.0612C93.6192 36.1636 93.9023 36.3149 94.1533 36.5152C94.4043 36.7133 94.6122 36.9559 94.777 37.243C94.9411 37.5279 95.0526 37.8539 95.11 38.2212Z" fill="#163272"/>
<path d="M96.6057 42.8349V35.9978H97.6356V38.969H101.039V35.9978H102.072V42.8349H101.039V39.8536H97.6356V42.8349H96.6057Z" fill="#163272"/>
<path d="M107.158 42.8349H106.065L108.522 35.9978H109.712L112.168 42.8349H111.075L109.145 37.2397H109.091L107.158 42.8349ZM107.341 40.1575H110.888V41.0254H107.341V40.1575Z" fill="#163272"/>
<path d="M118.927 35.9978V42.8349H117.98L114.51 37.8206H114.447V42.8349H113.417V35.9978H114.37L117.843 41.0188H117.907V35.9978H118.927Z" fill="#163272"/>
<path d="M122.902 42.8349H120.692V35.9978H122.972C123.641 35.9978 124.216 36.1346 124.695 36.4084C125.175 36.6799 125.543 37.0706 125.799 37.5802C126.057 38.0876 126.185 38.6964 126.185 39.4063C126.185 40.1185 126.055 40.7305 125.796 41.2424C125.538 41.7543 125.164 42.1483 124.675 42.4243C124.186 42.698 123.595 42.8349 122.902 42.8349ZM121.722 41.9335H122.845C123.366 41.9335 123.798 41.8356 124.142 41.6397C124.487 41.4416 124.744 41.1556 124.915 40.7818C125.086 40.4056 125.172 39.9471 125.172 39.4063C125.172 38.8699 125.086 38.4148 124.915 38.0409C124.746 37.667 124.494 37.3832 124.159 37.1896C123.823 36.996 123.407 36.8992 122.909 36.8992H121.722V41.9335Z" fill="#163272"/>
<path d="M136.146 38.2212H135.106C135.066 37.9986 134.992 37.8028 134.882 37.6336C134.774 37.4645 134.64 37.3209 134.482 37.2029C134.325 37.085 134.148 36.996 133.952 36.9359C133.759 36.8758 133.554 36.8457 133.336 36.8457C132.943 36.8457 132.591 36.9448 132.279 37.1428C131.97 37.3409 131.726 37.6314 131.546 38.0142C131.368 38.397 131.28 38.8644 131.28 39.4163C131.28 39.9727 131.368 40.4423 131.546 40.8252C131.726 41.2079 131.972 41.4973 132.283 41.6932C132.593 41.889 132.944 41.9869 133.333 41.9869C133.548 41.9869 133.753 41.958 133.946 41.9001C134.142 41.84 134.318 41.7521 134.476 41.6364C134.633 41.5206 134.767 41.3793 134.876 41.2124C134.987 41.0433 135.064 40.8496 135.106 40.6315L136.146 40.6348C136.09 40.9709 135.983 41.2803 135.823 41.5629C135.665 41.8433 135.462 42.0859 135.213 42.2907C134.966 42.4932 134.683 42.6501 134.366 42.7614C134.048 42.8727 133.701 42.9283 133.326 42.9283C132.735 42.9283 132.208 42.7881 131.746 42.5077C131.284 42.225 130.919 41.8211 130.653 41.2958C130.389 40.7706 130.256 40.1441 130.256 39.4163C130.256 38.6863 130.389 38.0598 130.656 37.5368C130.923 37.0115 131.287 36.6087 131.749 36.3283C132.212 36.0457 132.737 35.9043 133.326 35.9043C133.688 35.9043 134.026 35.9566 134.339 36.0612C134.655 36.1636 134.938 36.3149 135.189 36.5152C135.44 36.7133 135.648 36.9559 135.812 37.243C135.977 37.5279 136.088 37.8539 136.146 38.2212Z" fill="#163272"/>
<path d="M143.571 39.4163C143.571 40.1463 143.438 40.7739 143.171 41.2992C142.904 41.8222 142.539 42.225 142.074 42.5077C141.613 42.7881 141.087 42.9283 140.498 42.9283C139.907 42.9283 139.379 42.7881 138.915 42.5077C138.452 42.225 138.088 41.8211 137.821 41.2958C137.554 40.7706 137.421 40.1441 137.421 39.4163C137.421 38.6863 137.554 38.0598 137.821 37.5368C138.088 37.0115 138.452 36.6087 138.915 36.3283C139.379 36.0457 139.907 35.9043 140.498 35.9043C141.087 35.9043 141.613 36.0457 142.074 36.3283C142.539 36.6087 142.904 37.0115 143.171 37.5368C143.438 38.0598 143.571 38.6863 143.571 39.4163ZM142.551 39.4163C142.551 38.8599 142.461 38.3914 142.281 38.0108C142.104 37.628 141.859 37.3387 141.548 37.1428C141.239 36.9448 140.889 36.8457 140.498 36.8457C140.105 36.8457 139.753 36.9448 139.445 37.1428C139.135 37.3387 138.891 37.628 138.711 38.0108C138.534 38.3914 138.445 38.8599 138.445 39.4163C138.445 39.9727 138.534 40.4423 138.711 40.8252C138.891 41.2057 139.135 41.495 139.445 41.6932C139.753 41.889 140.105 41.9869 140.498 41.9869C140.889 41.9869 141.239 41.889 141.548 41.6932C141.859 41.495 142.104 41.2057 142.281 40.8252C142.461 40.4423 142.551 39.9727 142.551 39.4163Z" fill="#163272"/>
<path d="M150.628 35.9978V42.8349H149.681L146.212 37.8206H146.148V42.8349H145.118V35.9978H146.072L149.544 41.0188H149.608V35.9978H150.628Z" fill="#163272"/>
<path d="M156.116 37.7938C156.081 37.4778 155.935 37.233 155.677 37.0594C155.419 36.8836 155.094 36.7957 154.703 36.7957C154.423 36.7957 154.181 36.8402 153.977 36.9292C153.772 37.016 153.613 37.1362 153.5 37.2897C153.388 37.4411 153.333 37.6135 153.333 37.8072C153.333 37.9696 153.371 38.1099 153.447 38.2278C153.525 38.3458 153.626 38.4448 153.75 38.525C153.877 38.6029 154.012 38.6685 154.156 38.7219C154.301 38.7731 154.44 38.8154 154.573 38.8488L155.24 39.0224C155.458 39.0758 155.681 39.1481 155.91 39.2394C156.139 39.3307 156.351 39.4508 156.547 39.5999C156.742 39.7491 156.9 39.9338 157.02 40.1541C157.142 40.3745 157.203 40.6382 157.203 40.9453C157.203 41.3325 157.103 41.6764 156.903 41.9769C156.705 42.2773 156.417 42.5144 156.04 42.6879C155.664 42.8616 155.21 42.9484 154.676 42.9484C154.165 42.9484 153.724 42.8671 153.35 42.7046C152.977 42.5422 152.684 42.3119 152.473 42.0136C152.262 41.7131 152.146 41.357 152.123 40.9453H153.157C153.176 41.1923 153.256 41.3982 153.397 41.5629C153.539 41.7254 153.72 41.8467 153.94 41.9268C154.162 42.0047 154.405 42.0436 154.67 42.0436C154.961 42.0436 155.22 41.998 155.446 41.9068C155.675 41.8133 155.855 41.6842 155.987 41.5195C156.118 41.3526 156.184 41.1579 156.184 40.9353C156.184 40.7328 156.125 40.567 156.01 40.4379C155.896 40.3088 155.742 40.2019 155.547 40.1174C155.353 40.0328 155.134 39.9583 154.89 39.8937L154.083 39.6734C153.537 39.5243 153.103 39.305 152.783 39.0157C152.465 38.7264 152.307 38.3436 152.307 37.8673C152.307 37.4733 152.413 37.1295 152.627 36.8357C152.84 36.542 153.129 36.3138 153.493 36.1513C153.858 35.9866 154.269 35.9043 154.727 35.9043C155.188 35.9043 155.597 35.9855 155.95 36.148C156.305 36.3105 156.586 36.5342 156.79 36.819C156.995 37.1017 157.101 37.4266 157.11 37.7938H156.116Z" fill="#163272"/>
<path d="M163.087 35.9978H164.12V40.4947C164.12 40.9732 164.008 41.3971 163.784 41.7666C163.559 42.1338 163.243 42.4232 162.837 42.6346C162.43 42.8438 161.953 42.9484 161.407 42.9484C160.862 42.9484 160.387 42.8438 159.98 42.6346C159.574 42.4232 159.258 42.1338 159.033 41.7666C158.809 41.3971 158.697 40.9732 158.697 40.4947V35.9978H159.727V40.4112C159.727 40.7205 159.794 40.9954 159.93 41.2358C160.068 41.4762 160.262 41.6653 160.513 41.8033C160.764 41.9391 161.062 42.0069 161.407 42.0069C161.753 42.0069 162.052 41.9391 162.304 41.8033C162.557 41.6653 162.75 41.4762 162.884 41.2358C163.019 40.9954 163.087 40.7205 163.087 40.4112V35.9978Z" fill="#163272"/>
<path d="M165.88 42.8349V35.9978H166.91V41.9468H170.004V42.8349H165.88Z" fill="#163272"/>
<path d="M170.216 36.8858V35.9978H175.499V36.8858H173.369V42.8349H172.342V36.8858H170.216Z" fill="#163272"/>
<path d="M177.959 35.9978V42.8349H176.929V35.9978H177.959Z" fill="#163272"/>
<path d="M185.232 35.9978V42.8349H184.285L180.815 37.8206H180.752V42.8349H179.722V35.9978H180.675L184.148 41.0188H184.212V35.9978H185.232Z" fill="#163272"/>
<path d="M191.617 38.1577C191.552 37.9552 191.466 37.7738 191.357 37.6135C191.251 37.4511 191.123 37.3131 190.974 37.1996C190.825 37.0839 190.655 36.996 190.464 36.9359C190.275 36.8758 190.067 36.8457 189.841 36.8457C189.456 36.8457 189.109 36.9448 188.8 37.1428C188.492 37.3409 188.247 37.6314 188.067 38.0142C187.889 38.3948 187.8 38.861 187.8 39.413C187.8 39.9672 187.891 40.4356 188.071 40.8185C188.25 41.2012 188.497 41.4917 188.811 41.6898C189.124 41.8879 189.48 41.9869 189.88 41.9869C190.252 41.9869 190.575 41.9113 190.851 41.7599C191.128 41.6086 191.342 41.3949 191.493 41.1189C191.647 40.8407 191.724 40.5135 191.724 40.1374L191.991 40.1875H190.037V39.3362H192.72V40.1141C192.72 40.6883 192.598 41.1868 192.354 41.6097C192.112 42.0303 191.776 42.3552 191.347 42.5845C190.92 42.8137 190.431 42.9283 189.88 42.9283C189.263 42.9283 188.72 42.7859 188.254 42.501C187.79 42.2161 187.427 41.8122 187.167 41.2892C186.907 40.764 186.777 40.1407 186.777 39.4196C186.777 38.8744 186.853 38.3848 187.004 37.9508C187.155 37.5168 187.367 37.1484 187.64 36.8457C187.916 36.5408 188.24 36.3083 188.61 36.148C188.984 35.9855 189.391 35.9043 189.834 35.9043C190.203 35.9043 190.546 35.9588 190.864 36.0679C191.184 36.177 191.468 36.3316 191.717 36.5319C191.968 36.7322 192.176 36.9703 192.34 37.2464C192.505 37.5201 192.616 37.8239 192.674 38.1577H191.617Z" fill="#163272"/>
<mask id="mask0_384_8998" style="mask-type:luminance" maskUnits="userSpaceOnUse" x="51" y="2" width="142" height="28">
<path d="M192.72 2.05164H51.8389V29.4073H192.72V2.05164Z" fill="white"/>
</mask>
<g mask="url(#mask0_384_8998)">
<path d="M51.8389 29.4073V2.05164H57.4954V14.8115C58.1688 14.0036 58.8421 13.1958 59.5156 12.388C60.1889 11.5802 60.8684 10.7662 61.5541 9.9462L68.3125 2.05164H75.0891L64.8414 13.8751L75.3647 29.4073H68.8452L61.1133 17.6755L57.4954 21.8799V29.4073H51.8389Z" fill="#163272"/>
<path d="M83.0927 29.4073L92.6918 2.05164H99.9602L109.559 29.4073H103.3L101.392 23.4405H91.1688L89.1862 29.4073H83.0927ZM92.6918 18.924H99.9233L99.0055 16.0966C98.5774 14.7013 98.1492 13.2815 97.7211 11.8372C97.2923 10.393 96.8341 8.82017 96.3445 7.11885C95.8548 8.82017 95.3897 10.393 94.9493 11.8372C94.5089 13.2815 94.0685 14.7013 93.628 16.0966L92.6918 18.924Z" fill="#163272"/>
<path d="M124.947 2.05164V29.4073H119.271V2.05164H124.947Z" fill="#163272"/>
<path d="M146.511 29.4073C143.121 29.4073 140.477 28.6068 138.58 27.0061C136.695 25.4053 135.752 23.1642 135.752 20.2828H141.034C141.07 21.7413 141.574 22.8796 142.545 23.6978C143.518 24.5041 144.851 24.9073 146.547 24.9073C148.064 24.9073 149.286 24.599 150.21 23.9824C151.135 23.3658 151.597 22.5417 151.597 21.51C151.597 20.6563 151.224 19.9627 150.477 19.429C149.742 18.8955 148.533 18.4448 146.849 18.0772L144.057 17.4725C138.865 16.346 136.268 13.8915 136.268 10.1089C136.268 8.49628 136.689 7.09116 137.53 5.89352C138.372 4.68403 139.546 3.74135 141.052 3.06546C142.558 2.38958 144.318 2.05164 146.333 2.05164C149.38 2.05164 151.793 2.81053 153.571 4.32831C155.361 5.84609 156.298 7.93898 156.381 10.607H151.26C151.164 9.35005 150.678 8.35991 149.801 7.63656C148.924 6.91328 147.774 6.55162 146.351 6.55162C145 6.55162 143.891 6.85993 143.025 7.47653C142.172 8.09312 141.745 8.88165 141.745 9.84211C141.745 10.6603 142.101 11.3184 142.812 11.8164C143.523 12.3144 144.691 12.7413 146.316 13.097L148.858 13.6484C151.68 14.2532 153.743 15.1603 155.048 16.3698C156.363 17.5674 157.021 19.1622 157.021 21.1543C157.021 23.7037 156.084 25.7195 154.211 27.2017C152.338 28.6721 149.771 29.4073 146.511 29.4073Z" fill="#163272"/>
<path d="M180.299 29.4073C177.93 29.4073 175.804 28.8559 173.921 27.7531C172.037 26.6385 170.551 25.0614 169.461 23.0219C168.372 20.9705 167.827 18.5456 167.827 15.7472C167.827 12.9251 168.372 10.4943 169.461 8.45477C170.551 6.4034 172.037 4.82633 173.921 3.72356C175.804 2.60894 177.93 2.05164 180.299 2.05164C182.679 2.05164 184.806 2.60894 186.677 3.72356C188.56 4.82633 190.047 6.4034 191.136 8.45477C192.238 10.4943 192.789 12.9251 192.789 15.7472C192.789 18.5575 192.238 20.9824 191.136 23.0219C190.047 25.0614 188.56 26.6385 186.677 27.7531C184.806 28.8559 182.679 29.4073 180.299 29.4073ZM180.299 24.5693C182.348 24.5693 184.024 23.8045 185.327 22.2749C186.63 20.7334 187.281 18.5575 187.281 15.7472C187.281 12.9251 186.63 10.7433 185.327 9.20178C184.024 7.66029 182.348 6.88955 180.299 6.88955C178.262 6.88955 176.592 7.66029 175.289 9.20178C173.986 10.7433 173.334 12.9251 173.334 15.7472C173.334 18.5575 173.986 20.7334 175.289 22.2749C176.592 23.8045 178.262 24.5693 180.299 24.5693Z" fill="#163272"/>
</g>
<mask id="mask1_384_8998" style="mask-type:luminance" maskUnits="userSpaceOnUse" x="0" y="0" width="45" height="45">
<path d="M45 0H0V45H45V0Z" fill="white"/>
</mask>
<g mask="url(#mask1_384_8998)">
<path d="M40.8621 0H4.13793C1.85258 0 0 1.85258 0 4.13793V40.8621C0 43.1474 1.85258 45 4.13793 45H40.8621C43.1474 45 45 43.1474 45 40.8621V4.13793C45 1.85258 43.1474 0 40.8621 0ZM42.931 40.8621C42.931 42.0043 42.0043 42.931 40.8621 42.931H4.13793C2.99569 42.931 2.06897 42.0043 2.06897 40.8621V4.13793C2.06897 2.99569 2.99569 2.06897 4.13793 2.06897H40.8621C42.0043 2.06897 42.931 2.99569 42.931 4.13793V40.8621Z" fill="#163272"/>
<path d="M17.4138 39.1407C17.4138 40.0929 16.6419 40.8621 15.6897 40.8621H7.93108C6.97883 40.8621 6.20691 40.0929 6.20691 39.1407C6.20691 32.6086 6.20691 11.9399 6.20691 5.84526C6.20691 4.89304 6.97883 4.13794 7.93108 4.13794H15.6897C16.6419 4.13794 17.4138 4.89304 17.4138 5.84526C17.4138 11.9399 17.4138 32.6086 17.4138 39.1407Z" fill="#163272"/>
<path d="M26.8965 17.931C30.7054 17.931 33.7931 14.8433 33.7931 11.0345C33.7931 7.22562 30.7054 4.13794 26.8965 4.13794C23.0877 4.13794 20 7.22562 20 11.0345C20 14.8433 23.0877 17.931 26.8965 17.931Z" fill="#D62035"/>
<path d="M38.8793 40.862H21.2685C20.52 40.862 19.9138 40.2558 19.9138 39.5073V21.8965C30.3882 21.8965 38.8793 30.3876 38.8793 40.862Z" fill="#5AB1E0"/>
</g>
</g>
<defs>
<clipPath id="clip0_384_8998">
<rect width="192.72" height="45" fill="white"/>
</clipPath>
</defs>
</svg>
